# xmcd
#
# Track frame offsets: 
#        150
#        23341
#        50362
#        68698
#        88398
#        110598
#        127194
#        141301
#        162885
#        183276
#        203593
#
# Disc length: 2978 seconds
#
# Revision: 0
# Processed by: cddbd v1.4PL0 Copyright (c) Steve Scherf et al.
# Submitted via: ExactAudioCopy v0.90b4
#
DISCID=950ba00b
DTITLE=Rebecca Folsom - Across The Sky
DYEAR=2001
DGENRE=Country
TTITLE0=Great Winds Across The Sky
TTITLE1=Down The Road
TTITLE2=Old Buildings
TTITLE3=Eclipse of The Moon
TTITLE4=Spinning
TTITLE5=Love That's True
TTITLE6=Before You Go
TTITLE7=Glass Houses
TTITLE8=Burn
TTITLE9=I've Been Betrayed
TTITLE10=In Good Time
EXTD=
EXTT0=
EXTT1=
EXTT2=
EXTT3=
EXTT4=
EXTT5=
EXTT6=
EXTT7=
EXTT8=
EXTT9=
EXTT10=
PLAYORDER=
